# xmcd
#
# Track frame offsets:
#	150
#	9080
#	28327
#	47842
#	62497
#	79945
#	101787
#	119612
#	134609
#	150447
#	154715
#	170900
#	189612
#	210197
#	225242
#	243892
#	263927
#	276115
#	294962
#	297325
#
# Disc length: 4208 seconds
#
# Revision: 0
# Processed by: cddbd v1.5.2PL0 Copyright (c) Steve Scherf et al.
# Submitted via: dBpowerAMP V4.0
#
DISCID=17106e14
DTITLE=AG2AKE - Ball $treet
DYEAR=2001
DGENRE=Hardcore - Rap
TTITLE0=Mil-Ticket Part II
TTITLE1=Mr.AGR
TTITLE2=Boom! Kat(Radio)
TTITLE3=Six Billion Dollar Thug
TTITLE4=Concrete Jungle
TTITLE5=Now I Know(Radio)
TTITLE6=Till We Ball
TTITLE7=Hip-Hop(If It Didn't Love Me?)
TTITLE8=Do What You Do?(feat. Coo Coo Cal and 2-Face)
TTITLE9=Rahshemee Corner(skit)
TTITLE10=G Eology
TTITLE11=R.A.W.(feat. Vivio and C-Note)
TTITLE12=At Your Spot
TTITLE13=A-Team
TTITLE14=Last Laugh
TTITLE15=Olivia(feat.Black Tay)
TTITLE16=Broken Home/The Product
TTITLE17=Come Again(feat. Big Baby)
TTITLE18=Lift Click(Skit)
TTITLE19=Lift Click
EXTD=
EXTT0=
EXTT1=
EXTT2=
EXTT3=
EXTT4=
EXTT5=
EXTT6=
EXTT7=
EXTT8=
EXTT9=
EXTT10=
EXTT11=
EXTT12=
EXTT13=
EXTT14=
EXTT15=
EXTT16=
EXTT17=
EXTT18=
EXTT19=
PLAYORDER=
